<svg width="87" height="25" viewBox="0 0 87 25" fill="none" xmlns="http://www.w3.org/2000/svg">
<rect width="87" height="25" rx="5" fill="white" fill-opacity="0.7"/>
<path d="M32.0205 8.99C32.1138 8.99 32.1872 9.01667 32.2405 9.07C32.3005 9.12333 32.3305 9.19 32.3305 9.27C32.3305 9.31667 32.3205 9.36667 32.3005 9.42L29.6305 15.8C29.5972 15.8667 29.5538 15.9167 29.5005 15.95C29.4472 15.9833 29.3938 16 29.3405 16C29.2805 16 29.2238 15.9833 29.1705 15.95C29.1172 15.9167 29.0805 15.87 29.0605 15.81L26.4005 9.44C26.3938 9.42 26.3872 9.39667 26.3805 9.37C26.3738 9.34333 26.3705 9.31333 26.3705 9.28C26.3705 9.19333 26.4005 9.12333 26.4605 9.07C26.5272 9.01667 26.5938 8.99 26.6605 8.99C26.8005 8.99 26.9005 9.06333 26.9605 9.21L29.4605 15.19H29.2805L31.7405 9.19C31.8072 9.05667 31.9005 8.99 32.0205 8.99Z" fill="#2D2D2D"/>
<path d="M34.2409 15.69C34.2342 15.7767 34.1976 15.85 34.1309 15.91C34.0709 15.97 34.0009 16 33.9209 16C33.8276 16 33.7509 15.97 33.6909 15.91C33.6376 15.85 33.6109 15.7767 33.6109 15.69V9.31C33.6109 9.22333 33.6409 9.15 33.7009 9.09C33.7609 9.03 33.8376 9 33.9309 9C34.0109 9 34.0809 9.03 34.1409 9.09C34.2076 9.15 34.2409 9.22333 34.2409 9.31V15.69Z" fill="#2D2D2D"/>
<path d="M36.4109 9H40.0809C40.1609 9 40.2309 9.03 40.2909 9.09C40.3509 9.14333 40.3809 9.21333 40.3809 9.3C40.3809 9.38667 40.3509 9.45667 40.2909 9.51C40.2309 9.56333 40.1609 9.59 40.0809 9.59H36.6409L36.7409 9.42V12.23L36.6309 12.1H39.6309C39.7109 12.1 39.7809 12.13 39.8409 12.19C39.9009 12.25 39.9309 12.32 39.9309 12.4C39.9309 12.4867 39.9009 12.5567 39.8409 12.61C39.7809 12.6633 39.7109 12.69 39.6309 12.69H36.6509L36.7409 12.59V15.47L36.6909 15.41H40.0809C40.1609 15.41 40.2309 15.44 40.2909 15.5C40.3509 15.56 40.3809 15.63 40.3809 15.71C40.3809 15.7967 40.3509 15.8667 40.2909 15.92C40.2309 15.9733 40.1609 16 40.0809 16H36.4109C36.3309 16 36.2609 15.97 36.2009 15.91C36.1409 15.85 36.1109 15.78 36.1109 15.7V9.3C36.1109 9.22 36.1409 9.15 36.2009 9.09C36.2609 9.03 36.3309 9 36.4109 9Z" fill="#2D2D2D"/>
<path d="M49.8945 8.98C49.9812 8.98 50.0545 9.00667 50.1145 9.06C50.1812 9.10667 50.2145 9.18 50.2145 9.28C50.2145 9.31333 50.2078 9.35667 50.1945 9.41L47.9845 15.81C47.9645 15.87 47.9278 15.9167 47.8745 15.95C47.8212 15.9833 47.7678 16 47.7145 16C47.6478 16 47.5878 15.9867 47.5345 15.96C47.4812 15.9267 47.4412 15.8767 47.4145 15.81L45.6445 11.43L45.7245 11.45L43.9545 15.81C43.9278 15.8767 43.8845 15.9267 43.8245 15.96C43.7712 15.9867 43.7145 16 43.6545 16C43.6012 16 43.5478 15.9833 43.4945 15.95C43.4478 15.9167 43.4145 15.87 43.3945 15.81L41.1845 9.41C41.1645 9.35667 41.1545 9.31667 41.1545 9.29C41.1545 9.19 41.1912 9.11333 41.2645 9.06C41.3378 9.00667 41.4112 8.98 41.4845 8.98C41.5512 8.98 41.6112 8.99667 41.6645 9.03C41.7178 9.06333 41.7545 9.11 41.7745 9.17L43.7845 15.03L43.6745 15.04L45.4145 10.7C45.4345 10.64 45.4678 10.5933 45.5145 10.56C45.5678 10.52 45.6278 10.5033 45.6945 10.51C45.7612 10.5033 45.8178 10.52 45.8645 10.56C45.9178 10.5933 45.9578 10.64 45.9845 10.7L47.7045 15.02L47.5945 15.06L49.5945 9.17C49.6145 9.11 49.6512 9.06333 49.7045 9.03C49.7578 8.99667 49.8212 8.98 49.8945 8.98Z" fill="#2D2D2D"/>
<path d="M54.8171 15.69C54.8104 15.7767 54.7737 15.85 54.7071 15.91C54.6471 15.97 54.5771 16 54.4971 16C54.4037 16 54.3271 15.97 54.2671 15.91C54.2137 15.85 54.1871 15.7767 54.1871 15.69V9.31C54.1871 9.22333 54.2171 9.15 54.2771 9.09C54.3371 9.03 54.4137 9 54.5071 9C54.5871 9 54.6571 9.03 54.7171 9.09C54.7837 9.15 54.8171 9.22333 54.8171 9.31V15.69Z" fill="#2D2D2D"/>
<path d="M61.8071 9C61.8937 9 61.9604 9.02667 62.0071 9.08C62.0604 9.13333 62.0871 9.2 62.0871 9.28V15.68C62.0871 15.78 62.0537 15.86 61.9871 15.92C61.9271 15.9733 61.8571 16 61.7771 16C61.7371 16 61.6937 15.9933 61.6471 15.98C61.6004 15.96 61.5637 15.9333 61.5371 15.9L57.0771 9.89L57.2471 9.8V15.73C57.2471 15.8033 57.2204 15.8667 57.1671 15.92C57.1137 15.9733 57.0471 16 56.9671 16C56.8804 16 56.8104 15.9733 56.7571 15.92C56.7104 15.8667 56.6871 15.8033 56.6871 15.73V9.3C56.6871 9.2 56.7171 9.12667 56.7771 9.08C56.8371 9.02667 56.9037 9 56.9771 9C57.0171 9 57.0604 9.01 57.1071 9.03C57.1537 9.04333 57.1904 9.07 57.2171 9.11L61.6271 15.05L61.5271 15.23V9.28C61.5271 9.2 61.5537 9.13333 61.6071 9.08C61.6671 9.02667 61.7337 9 61.8071 9Z" fill="#2D2D2D"/>
<path d="M69.0668 10.3L66.8168 15.7C66.7768 15.8067 66.7168 15.89 66.6368 15.95C66.5568 16.01 66.4668 16.04 66.3668 16.04C66.2202 16.04 66.1102 16 66.0368 15.92C65.9635 15.8333 65.9235 15.7267 65.9168 15.6C65.9168 15.5533 65.9268 15.5 65.9468 15.44L68.4868 9.3C68.5335 9.18667 68.6002 9.1 68.6868 9.04C68.7802 8.98 68.8802 8.95333 68.9868 8.96C69.0868 8.96 69.1802 8.99 69.2668 9.05C69.3535 9.11 69.4168 9.19333 69.4568 9.3L71.9668 15.35C71.9935 15.4167 72.0068 15.4833 72.0068 15.55C72.0068 15.6967 71.9568 15.8167 71.8568 15.91C71.7635 15.9967 71.6568 16.04 71.5368 16.04C71.4368 16.04 71.3435 16.01 71.2568 15.95C71.1768 15.8833 71.1168 15.8 71.0768 15.7L68.8068 10.33L69.0668 10.3ZM67.2168 14.28L67.6668 13.32H70.4968L70.6668 14.28H67.2168Z" fill="#2D2D2D"/>
<path d="M73.5829 16C73.4229 16 73.2828 15.9533 73.1628 15.86C73.0428 15.76 72.9828 15.6367 72.9828 15.49V9.51C72.9828 9.36333 73.0329 9.24333 73.1329 9.15C73.2329 9.05 73.3529 9 73.4929 9H76.3129C76.6729 9 77.0028 9.09 77.3028 9.27C77.6028 9.44333 77.8428 9.68667 78.0229 10C78.2095 10.3067 78.3028 10.66 78.3028 11.06C78.3028 11.3267 78.2495 11.5833 78.1428 11.83C78.0362 12.07 77.8928 12.2833 77.7128 12.47C77.5328 12.6567 77.3295 12.7967 77.1029 12.89L76.9929 12.7C77.1995 12.7733 77.3795 12.88 77.5328 13.02C77.6862 13.1533 77.8062 13.3133 77.8928 13.5C77.9862 13.68 78.0362 13.8867 78.0429 14.12C78.0629 14.3267 78.0795 14.5 78.0928 14.64C78.1128 14.7733 78.1395 14.8833 78.1729 14.97C78.2062 15.0567 78.2662 15.1233 78.3529 15.17C78.4729 15.2367 78.5462 15.3367 78.5728 15.47C78.6062 15.6033 78.5795 15.7233 78.4929 15.83C78.4329 15.91 78.3562 15.9633 78.2629 15.99C78.1762 16.01 78.0862 16.0133 77.9929 16C77.8995 15.98 77.8195 15.9533 77.7528 15.92C77.6462 15.8533 77.5362 15.76 77.4229 15.64C77.3162 15.5133 77.2295 15.34 77.1628 15.12C77.0962 14.9 77.0629 14.61 77.0629 14.25C77.0629 14.0833 77.0362 13.94 76.9828 13.82C76.9295 13.7 76.8562 13.6033 76.7629 13.53C76.6695 13.45 76.5595 13.3933 76.4328 13.36C76.3062 13.32 76.1662 13.3 76.0129 13.3H73.8928L74.0328 13.1V15.49C74.0328 15.6367 73.9928 15.76 73.9128 15.86C73.8328 15.9533 73.7229 16 73.5829 16ZM73.9029 12.43H76.2929C76.4462 12.4233 76.5928 12.3633 76.7328 12.25C76.8795 12.13 76.9962 11.97 77.0829 11.77C77.1762 11.57 77.2229 11.3433 77.2229 11.09C77.2229 10.77 77.1262 10.5033 76.9328 10.29C76.7462 10.07 76.5229 9.96 76.2629 9.96H73.9229L74.0328 9.7V12.64L73.9029 12.43Z" fill="#2D2D2D"/>
<path d="M19.3194 7.9846C19.3898 8.01883 19.4498 8.07564 19.4875 8.15103C19.4893 8.15462 19.491 8.15823 19.4927 8.16185C19.4964 8.1698 19.4997 8.17788 19.5028 8.18608C19.5198 8.23121 19.5274 8.27756 19.5264 8.3232V10.8947C19.5264 11.0982 19.3614 11.2632 19.158 11.2632C18.9545 11.2632 18.7896 11.0982 18.7896 10.8947V8.91191L17.1122 9.75058C16.9302 9.84157 16.7089 9.76781 16.6179 9.58582C16.5269 9.40382 16.6007 9.18252 16.7827 9.09153L18.3342 8.31579L16.7827 7.54005C16.6007 7.44906 16.5269 7.22776 16.6179 7.04576C16.7089 6.86377 16.9302 6.79 17.1122 6.881L19.3194 7.9846ZM19.5264 15.6768C19.5275 15.7309 19.5167 15.786 19.4927 15.8381C19.4747 15.8774 19.4498 15.9132 19.4192 15.944C19.3882 15.9748 19.3551 15.998 19.3194 16.0154L17.1122 17.119C16.9302 17.21 16.7089 17.1362 16.6179 16.9542C16.5269 16.7722 16.6007 16.5509 16.7827 16.4599L18.3342 15.6842L16.7827 14.9085C16.6007 14.8175 16.5269 14.5962 16.6179 14.4142C16.7089 14.2322 16.9302 14.1584 17.1122 14.2494L18.7896 15.0881V13.1053C18.7896 12.9018 18.9545 12.7368 19.158 12.7368C19.3614 12.7368 19.5264 12.9018 19.5264 13.1053V15.6768ZM8.19232 15.6842L9.74379 16.4599C9.92578 16.5509 9.99955 16.7722 9.90855 16.9542C9.81756 17.1362 9.59626 17.21 9.41427 17.119L7.20707 16.0154C7.13672 15.9812 7.07667 15.9244 7.03898 15.849C7.03718 15.8454 7.03545 15.8418 7.03378 15.8381C7.03012 15.8302 7.02675 15.8221 7.02366 15.8139C7.00666 15.7688 6.99912 15.7224 7.00008 15.6768V13.1053C7.00008 12.9018 7.16503 12.7368 7.3685 12.7368C7.57198 12.7368 7.73692 12.9018 7.73692 13.1053V15.0881L9.41427 14.2494C9.59626 14.1584 9.81756 14.2322 9.90855 14.4142C9.99955 14.5962 9.92578 14.8175 9.74379 14.9085L8.19232 15.6842ZM7.73692 8.91191V10.8947C7.73692 11.0982 7.57198 11.2632 7.3685 11.2632C7.16503 11.2632 7.00008 11.0982 7.00008 10.8947V8.3232C6.99895 8.26911 7.00975 8.21403 7.03378 8.16185C7.05182 8.12263 7.07667 8.08677 7.10724 8.05602C7.13826 8.0252 7.17133 8.00198 7.20707 7.9846L9.41427 6.881C9.59626 6.79 9.81756 6.86377 9.90855 7.04576C9.99955 7.22776 9.92578 7.44906 9.74379 7.54005L8.19232 8.31579L9.74379 9.09153C9.92578 9.18252 9.99955 9.40382 9.90855 9.58582C9.81756 9.76781 9.59626 9.84157 9.41427 9.75058L7.73692 8.91191ZM13.0918 5.04221C13.143 5.01526 13.2014 5 13.2632 5C13.3251 5 13.3834 5.01526 13.4346 5.04221L15.6385 6.14416C15.8205 6.23515 15.8943 6.45645 15.8033 6.63845C15.7123 6.82044 15.491 6.89421 15.309 6.80321L13.6317 5.96454V7.94737C13.6317 8.15084 13.4667 8.31579 13.2632 8.31579C13.0598 8.31579 12.8948 8.15084 12.8948 7.94737V5.96454L11.2175 6.80321C11.0355 6.89421 10.8142 6.82044 10.7232 6.63845C10.6322 6.45645 10.706 6.23515 10.8879 6.14416L13.0918 5.04221ZM13.4346 18.9578C13.3834 18.9847 13.3251 19 13.2632 19C13.2014 19 13.143 18.9847 13.0918 18.9578L10.8879 17.8558C10.706 17.7648 10.6322 17.5435 10.7232 17.3616C10.8142 17.1796 11.0355 17.1058 11.2175 17.1968L12.8948 18.0355V16.0526C12.8948 15.8492 13.0598 15.6842 13.2632 15.6842C13.4667 15.6842 13.6317 15.8492 13.6317 16.0526V18.0355L15.309 17.1968C15.491 17.1058 15.7123 17.1796 15.8033 17.3616C15.8943 17.5435 15.8205 17.7648 15.6385 17.8558L13.4346 18.9578ZM13.6317 11.4909V13.4737C13.6317 13.6772 13.4667 13.8421 13.2632 13.8421C13.0598 13.8421 12.8948 13.6772 12.8948 13.4737V11.4909L10.8879 10.4874C10.706 10.3964 10.6322 10.1751 10.7232 9.99313C10.8142 9.81114 11.0355 9.73737 11.2175 9.82837L13.2632 10.8513L15.309 9.82837C15.491 9.73737 15.7123 9.81114 15.8033 9.99313C15.8943 10.1751 15.8205 10.3964 15.6385 10.4874L13.6317 11.4909Z" fill="black"/>
</svg>
